<svg width="34" height="34" xmlns="http://www.w3.org/2000/svg" preserveAspectRatio="xMidYMid meet">

 <g>
  <title>background</title>
  <rect fill="none" id="canvas_background" height="602" width="802" y="-1" x="-1"/>
 </g>
 <g>
  <title>Layer 1</title>
  <g id="svg_1" fill="#000000" transform="translate(0,34) scale(0.10000000149011612,-0.10000000149011612) ">
   <path fill="#ffffff" id="svg_2" d="m57,282c-13,-15 -17,-39 -17,-115c0,-126 1,-127 130,-127c129,0 130,1 130,129c0,128 -3,131 -132,131c-79,0 -98,-3 -111,-18zm211,-14c16,-16 16,-180 0,-196c-16,-16 -180,-16 -196,0c-16,16 -16,180 0,196c16,16 180,16 196,0z"/>
   <path fill="#ffffff" id="svg_3" d="m90,204c0,-4 9,-22 20,-40c24,-37 58,-53 71,-33c6,11 11,11 21,1c14,-14 48,-16 48,-3c0,5 -7,14 -15,21c-14,12 -14,15 0,30c20,22 19,30 -4,30c-11,0 -23,-9 -26,-20c-3,-11 -11,-20 -16,-20c-5,0 -9,9 -9,20c0,28 -30,26 -31,-2l0,-23l-16,23c-14,20 -43,31 -43,16z"/>
  </g>
 </g>
</svg>