<?xml version="1.0" standalone="no"?>
<!DOCTYPE svg PUBLIC "-//W3C//DTD SVG 20010904//EN"
 "http://www.w3.org/TR/2001/REC-SVG-20010904/DTD/svg10.dtd">
<svg version="1.0" xmlns="http://www.w3.org/2000/svg"
 width="34.000000pt" height="34.000000pt" viewBox="0 0 34.000000 34.000000"
 preserveAspectRatio="xMidYMid meet">

<g transform="translate(0.000000,34.000000) scale(0.100000,-0.100000)"
fill="#000000" stroke="none">
<path d="M57 282 c-13 -15 -17 -39 -17 -115 0 -126 1 -127 130 -127 129 0 130
1 130 129 0 128 -3 131 -132 131 -79 0 -98 -3 -111 -18z m211 -14 c16 -16 16
-180 0 -196 -16 -16 -180 -16 -196 0 -16 16 -16 180 0 196 16 16 180 16 196 0z"/>
<path d="M90 204 c0 -4 9 -22 20 -40 24 -37 58 -53 71 -33 6 11 11 11 21 1 14
-14 48 -16 48 -3 0 5 -7 14 -15 21 -14 12 -14 15 0 30 20 22 19 30 -4 30 -11
0 -23 -9 -26 -20 -3 -11 -11 -20 -16 -20 -5 0 -9 9 -9 20 0 28 -30 26 -31 -2
l0 -23 -16 23 c-14 20 -43 31 -43 16z"/>
</g>
</svg>
