<?xml version="1.0" standalone="no"?>
<!DOCTYPE svg PUBLIC "-//W3C//DTD SVG 20010904//EN"
 "http://www.w3.org/TR/2001/REC-SVG-20010904/DTD/svg10.dtd">
<svg version="1.0" xmlns="http://www.w3.org/2000/svg"
 width="498.000000pt" height="150.000000pt" viewBox="0 0 498.000000 150.000000"
 preserveAspectRatio="xMidYMid meet">

<g transform="translate(0.000000,150.000000) scale(0.100000,-0.100000)"
fill="#000000" stroke="none">
<path d="M2625 1366 c-23 -7 -50 -9 -60 -5 -43 16 -157 10 -202 -12 -59 -29
-116 -97 -137 -164 -15 -47 -16 -64 -6 -124 9 -54 9 -78 -1 -110 -11 -38 -10
-44 8 -69 27 -37 86 -41 145 -11 160 80 333 267 368 397 9 37 9 48 -5 68 -12
19 -57 47 -68 43 -1 0 -20 -6 -42 -13z m-62 -68 c12 -6 29 -6 49 1 17 6 41 11
54 11 20 0 22 -3 15 -28 -39 -134 -239 -333 -380 -377 -23 -7 -23 -6 -17 31 9
49 9 73 0 150 -8 76 5 120 51 167 58 60 163 80 228 45z"/>
<path d="M2686 1108 c-2 -7 -9 -31 -15 -54 -14 -54 -82 -121 -136 -135 -64
-16 -67 -18 -63 -41 7 -50 117 -26 186 41 76 74 108 192 54 199 -12 2 -24 -3
-26 -10z"/>
<path d="M355 847 c-3 -7 -4 -149 -3 -317 l3 -305 2125 0 2125 0 0 315 0 315
-613 3 c-490 2 -613 0 -610 -10 4 -10 133 -14 601 -16 l597 -2 0 -285 0 -285
-2095 0 -2095 0 0 286 0 286 588 -4 c323 -1 593 1 600 5 7 5 10 13 7 18 -4 5
-250 9 -616 9 -481 0 -611 -3 -614 -13z"/>
<path d="M2261 693 c-16 -32 -91 -296 -85 -304 3 -5 14 -9 25 -9 15 0 25 12
36 40 l16 40 67 0 67 0 16 -40 c12 -32 20 -40 41 -40 14 0 26 5 26 12 0 19
-83 292 -93 306 -15 19 -104 16 -116 -5z m84 -84 c7 -19 15 -46 19 -61 6 -28
6 -28 -45 -28 -40 0 -50 3 -46 14 3 8 11 34 17 58 7 24 14 47 17 51 9 16 26 1
38 -34z"/>
<path d="M2515 698 c-3 -8 -4 -81 -3 -163 l3 -150 25 0 c24 0 25 3 28 68 l3
68 42 -3 c40 -3 43 -5 77 -68 31 -58 39 -65 65 -65 35 0 47 31 19 52 -9 7 -29
36 -43 65 l-26 53 19 42 c11 23 28 44 38 46 21 6 24 40 5 55 -21 18 -59 -9
-87 -60 -32 -59 -29 -57 -73 -62 l-36 -5 -3 67 c-3 61 -5 67 -26 70 -12 2 -24
-3 -27 -10z"/>
</g>
</svg>
