<svg width="498" height="150" xmlns="http://www.w3.org/2000/svg" preserveAspectRatio="xMidYMid meet">

 <g>
  <title>background</title>
  <rect fill="none" id="canvas_background" height="602" width="802" y="-1" x="-1"/>
 </g>
 <g>
  <title>Layer 1</title>
  <g id="svg_1" fill="#000000" transform="translate(0,150) scale(0.10000000149011612,-0.10000000149011612) ">
   <path fill="#e6e6e6" id="svg_2" d="m2625,1366c-23,-7 -50,-9 -60,-5c-43,16 -157,10 -202,-12c-59,-29 -116,-97 -137,-164c-15,-47 -16,-64 -6,-124c9,-54 9,-78 -1,-110c-11,-38 -10,-44 8,-69c27,-37 86,-41 145,-11c160,80 333,267 368,397c9,37 9,48 -5,68c-12,19 -57,47 -68,43c-1,0 -20,-6 -42,-13zm-62,-68c12,-6 29,-6 49,1c17,6 41,11 54,11c20,0 22,-3 15,-28c-39,-134 -239,-333 -380,-377c-23,-7 -23,-6 -17,31c9,49 9,73 0,150c-8,76 5,120 51,167c58,60 163,80 228,45z"/>
   <path fill="#e6e6e6" id="svg_3" d="m2686,1108c-2,-7 -9,-31 -15,-54c-14,-54 -82,-121 -136,-135c-64,-16 -67,-18 -63,-41c7,-50 117,-26 186,41c76,74 108,192 54,199c-12,2 -24,-3 -26,-10z"/>
   <path fill="#e6e6e6" id="svg_4" d="m355,847c-3,-7 -4,-149 -3,-317l3,-305l2125,0l2125,0l0,315l0,315l-613,3c-490,2 -613,0 -610,-10c4,-10 133,-14 601,-16l597,-2l0,-285l0,-285l-2095,0l-2095,0l0,286l0,286l588,-4c323,-1 593,1 600,5c7,5 10,13 7,18c-4,5 -250,9 -616,9c-481,0 -611,-3 -614,-13z"/>
   <path fill="#e6e6e6" id="svg_5" d="m2261,693c-16,-32 -91,-296 -85,-304c3,-5 14,-9 25,-9c15,0 25,12 36,40l16,40l67,0l67,0l16,-40c12,-32 20,-40 41,-40c14,0 26,5 26,12c0,19 -83,292 -93,306c-15,19 -104,16 -116,-5zm84,-84c7,-19 15,-46 19,-61c6,-28 6,-28 -45,-28c-40,0 -50,3 -46,14c3,8 11,34 17,58c7,24 14,47 17,51c9,16 26,1 38,-34z"/>
   <path fill="#e6e6e6" id="svg_6" d="m2515,698c-3,-8 -4,-81 -3,-163l3,-150l25,0c24,0 25,3 28,68l3,68l42,-3c40,-3 43,-5 77,-68c31,-58 39,-65 65,-65c35,0 47,31 19,52c-9,7 -29,36 -43,65l-26,53l19,42c11,23 28,44 38,46c21,6 24,40 5,55c-21,18 -59,-9 -87,-60c-32,-59 -29,-57 -73,-62l-36,-5l-3,67c-3,61 -5,67 -26,70c-12,2 -24,-3 -27,-10z"/>
  </g>
 </g>
</svg>